#!OML:ASF X:\für Bonn\!DataBase\2005_08_12_Daniel\c3d\Daniel.ASF
:FULLY-SPECIFIED
:DEGREES
294
root 14.2737 1.39128 0.700582 -583.68 -84.4976 -236.609
lowerback 40.0014 -3.47354 6.36667
upperback 17.7566 -5.01597 -2.19167
thorax -0.0213394 -3.46643 -3.89077
lowerneck 13.1331 9.21063 -4.0464
upperneck 10.5466 11.4294 -5.24269
head 1.30843 5.25013 -1.29991
rclavicle 9.54166e-014 6.2816e-014
rhumerus -25.4794 2.93133 -91.3231
rradius 25.4326
rwrist 12.9148
rhand -29.4193 -342.059
rfingers 7.12502
rthumb -2.75667 -372.021
lclavicle 9.54166e-014 6.2816e-014
lhumerus -384.305 -5.66835 -282.419
lradius 47.3239
lwrist -5.43209
lhand -14.2198 351.273
lfingers 7.12502
lthumb 11.9172 380.914
rfemur 156.386 -176.425 195.55
rtibia 68.595
rfoot 35.3911 -0.477094
rtoes 9.31153
lfemur -25.5894 3.57057 -7.95575
ltibia 74.9751
lfoot 24.0598 4.9539
ltoes 6.11679
295
root 14.2814 1.38389 0.704539 -584.356 -84.5571 -236.27
lowerback 39.4954 -3.50102 6.3146
upperback 17.7418 -5.06933 -2.14353
thorax 0.110366 -3.48327 -3.82253
lowerneck 13.2901 9.16965 -4.03566
upperneck 10.7011 11.364 -5.26307
head 1.33557 5.20826 -1.31042
rclavicle -3.4191e-014 -2.3059e-014
rhumerus -25.3532 2.42236 -91.1754
rradius 24.7022
rwrist 15.2149
rhand -29.0232 -342.355
rfingers 7.12502
rthumb -2.37408 -372.322
lclavicle -3.4191e-014 -2.3059e-014
lhumerus -384.087 -5.45876 -282.269
lradius 46.5367
lwrist -5.89342
lhand -14.3468 350.762
lfingers 7.12502
lthumb 11.7947 380.41
rfemur 156.777 -176.466 195.532
rtibia 68.5254
rfoot 35.2617 -0.287712
rtoes 9.10081
lfemur -25.112 3.0338 -7.90401
ltibia 74.6444
lfoot 24.1214 4.90191
ltoes 5.98295
296
root 14.2893 1.37634 0.707475 -585.183 -84.6124 -235.788
lowerback 38.9862 -3.52965 6.28466
upperback 17.7468 -5.12 -2.10252
thorax 0.266753 -3.4976 -3.7764
lowerneck 13.3607 9.13059 -4.07741
upperneck 10.8758 11.3018 -5.23432
head 1.37671 5.16495 -1.29291
rclavicle 3.33958e-014 6.44062e-014
rhumerus -25.1935 1.85 -91.0177
rradius 23.9707
rwrist 17.5909
rhand -28.6456 -342.661
rfingers 7.12502
rthumb -2.00947 -372.631
lclavicle 3.33958e-014 6.44062e-014
lhumerus -383.839 -5.22026 -282.135
lradius 45.7411
lwrist -6.38292
lhand -14.4875 350.311
lfingers 7.12502
lthumb 11.659 379.966
rfemur 157.167 -176.49 195.528
rtibia 68.48
rfoot 35.1252 -0.0510766
rtoes 8.99837
lfemur -24.6191 2.50706 -7.84155
ltibia 74.3179
lfoot 24.1875 4.84011
ltoes 5.95656
297
root 14.2975 1.36892 0.711187 -586.237 -84.6867 -235.104
lowerback 38.4046 -3.56487 6.266
upperback 17.8427 -5.18058 -2.06082
thorax 0.387471 -3.51608 -3.73319
lowerneck 13.4812 9.09078 -4.13879
upperneck 11.0247 11.2292 -5.20668
head 1.40074 5.11688 -1.27536
rclavicle -4.77083e-015 9.54166e-015
rhumerus -25.1376 1.35578 -90.8563
rradius 23.3438
rwrist 19.9219
rhand -28.3283 -343.071
rfingers 7.12502
rthumb -1.703 -373.044
lclavicle -4.77083e-015 9.54166e-015
lhumerus -383.705 -5.05412 -281.974
lradius 45.012
lwrist -6.75995
lhand -14.7475 350.017
lfingers 7.12502
lthumb 11.4083 379.687
rfemur 157.599 -176.51 195.512
rtibia 68.4334
rfoot 34.9515 0.0304493
rtoes 9.02973
lfemur -24.1324 1.9951 -7.79783
ltibia 74.0094
lfoot 24.2754 4.72822
ltoes 5.73639
298
root 14.305 1.36142 0.714129 -587.118 -84.7742 -234.565
lowerback 37.8842 -3.59614 6.21331
upperback 17.8456 -5.24295 -2.02093
thorax 0.546829 -3.53761 -3.67481
lowerneck 13.5244 9.06491 -4.23076
upperneck 11.2038 11.1791 -5.16021
head 1.44421 5.07677 -1.24355
rclavicle -2.14687e-014 2.70347e-014
rhumerus -25.0585 0.840158 -90.6667
rradius 22.76
rwrist 22.2226
rhand -27.9682 -343.432
rfingers 7.12502
rthumb -1.35518 -373.407
lclavicle -2.14687e-014 2.70347e-014
lhumerus -383.535 -4.78181 -281.821
lradius 44.2469
lwrist -7.2652
lhand -15.0117 349.767
lfingers 7.12502
lthumb 11.1535 379.451
rfemur 157.993 -176.522 195.468
rtibia 68.4097
rfoot 34.7806 0.129531
rtoes 9.0521
lfemur -23.6881 1.52472 -7.7819
ltibia 73.7218
lfoot 24.3227 4.65327
ltoes 5.51711
299
root 14.3139 1.35445 0.716563 -588.356 -84.8706 -233.684
lowerback 37.3855 -3.62836 6.1761
upperback 17.8413 -5.2987 -1.95859
thorax 0.697067 -3.5561 -3.60222
lowerneck 13.5187 9.02364 -4.33451
upperneck 11.4533 11.1137 -5.1207
head 1.51815 5.02361 -1.20811
rclavicle 1.27222e-014 5.24792e-014
rhumerus -25.0375 0.288465 -90.4513
rradius 22.2683
rwrist 24.4047
rhand -27.5561 -343.881
rfingers 7.12502
rthumb -0.957211 -373.858
lclavicle 1.27222e-014 5.24792e-014
lhumerus -383.392 -4.47968 -281.639
lradius 43.4764
lwrist -7.69667
lhand -15.3452 349.526
lfingers 7.12502
lthumb 10.8318 379.226
rfemur 158.425 -176.538 195.437
rtibia 68.3789
rfoot 34.5679 0.152731
rtoes 9.034
lfemur -23.2384 1.04183 -7.75189
ltibia 73.4442
lfoot 24.3591 4.67248
ltoes 5.39752
300
root 14.3217 1.34679 0.71906 -589.582 -85.0067 -232.808
lowerback 36.8889 -3.67593 6.14867
upperback 17.8315 -5.36971 -1.94396
thorax 0.835871 -3.57836 -3.57951
lowerneck 13.4962 8.9723 -4.31692
upperneck 11.7273 11.0568 -5.11619
head 1.61173 4.97834 -1.20161
rclavicle -1.27222e-014 -3.10104e-014
rhumerus -25.0321 -0.224008 -90.2947
rradius 21.8197
rwrist 26.4056
rhand -27.0994 -344.356
rfingers 7.12502
rthumb -0.516091 -374.335
lclavicle -1.27222e-014 -3.10104e-014
lhumerus -383.297 -4.15857 -281.519
lradius 42.7678
lwrist -8.20326
lhand -15.5994 349.412
lfingers 7.12502
lthumb 10.5866 379.125
rfemur 158.836 -176.533 195.361
rtibia 68.3696
rfoot 34.3486 0.197887
rtoes 8.97293
lfemur -22.8175 0.577883 -7.75925
ltibia 73.1866
lfoot 24.3614 4.69242
ltoes 5.29535
301
root 14.3307 1.34007 0.721946 -591.154 -85.1081 -231.603
lowerback 36.4205 -3.72836 6.14402
upperback 17.811 -5.43815 -1.90958
thorax 0.958371 -3.59966 -3.5471
lowerneck 13.5513 8.9328 -4.43316
upperneck 11.8874 10.9815 -5.03689
head 1.64387 4.92583 -1.15624
rclavicle 1.74931e-014 5.725e-014
rhumerus -25.0396 -0.726747 -90.1318
rradius 21.4161
rwrist 28.2746
rhand -26.6213 -344.815
rfingers 7.12502
rthumb -0.0543059 -374.795
lclavicle 1.74931e-014 5.725e-014
lhumerus -383.23 -3.76967 -281.381
lradius 42.0475
lwrist -8.76989
lhand -15.869 349.31
lfingers 7.12502
lthumb 10.3266 379.036
rfemur 159.28 -176.528 195.32
rtibia 68.3474
rfoot 34.1107 0.138847
rtoes 9.07394
lfemur -22.3844 0.112744 -7.72735
ltibia 72.9399
lfoot 24.3849 4.7433
ltoes 5.33034
302
root 14.3401 1.33384 0.724112 -592.699 -85.2438 -230.398
lowerback 35.8997 -3.7627 6.10991
upperback 17.8103 -5.49664 -1.86458
thorax 1.12507 -3.61723 -3.49757
lowerneck 13.5243 8.88052 -4.55099
upperneck 12.082 10.8987 -4.94078
head 1.69889 4.86787 -1.10089
rclavicle 3.81667e-014 1.19271e-014
rhumerus -24.9953 -1.24572 -89.9426
rradius 21.0147
rwrist 30.005
rhand -26.0824 -345.241
rfingers 7.12502
rthumb 0.466145 -375.22
lclavicle 3.81667e-014 1.19271e-014
lhumerus -383.149 -3.34814 -281.232
lradius 41.3449
lwrist -9.39844
lhand -16.1102 349.207
lfingers 7.12502
lthumb 10.0939 378.945
rfemur 159.685 -176.517 195.25
rtibia 68.3414
rfoot 33.8579 0.137972
rtoes 8.90117
lfemur -21.9933 -0.334684 -7.72466
ltibia 72.7049
lfoot 24.3944 4.78831
ltoes 5.30063
303
root 14.3502 1.32651 0.727244 -594.619 -85.3771 -228.839
lowerback 35.4535 -3.81099 6.09633
upperback 17.7865 -5.56172 -1.82137
thorax 1.24325 -3.63821 -3.4525
lowerneck 13.4935 8.82045 -4.63877
upperneck 12.2722 10.8114 -4.8699
head 1.75643 4.80876 -1.05804
rclavicle -2.70347e-014 -3.33958e-014
rhumerus -24.9409 -1.82438 -89.7471
rradius 20.5939
rwrist 31.576
rhand -25.5049 -345.558
rfingers 7.12502
rthumb 1.02391 -375.535
lclavicle -2.70347e-014 -3.33958e-014
lhumerus -383.095 -2.91527 -281.098
lradius 40.6745
lwrist -10.0423
lhand -16.267 349.212
lfingers 7.12502
lthumb 9.94257 378.958
rfemur 160.11 -176.496 195.183
rtibia 68.3387
rfoot 33.5906 0.123168
rtoes 8.82587
lfemur -21.5963 -0.773196 -7.70616
ltibia 72.4807
lfoot 24.3882 4.87034
ltoes 5.37421
304
root 14.3609 1.32056 0.729802 -596.426 -85.5209 -227.39
lowerback 34.9831 -3.84408 6.04481
upperback 17.7769 -5.62273 -1.77267
thorax 1.38981 -3.66017 -3.38711
lowerneck 13.4005 8.75907 -4.75319
upperneck 12.4661 10.725 -4.77094
head 1.82185 4.74935 -0.999645
rclavicle 2.22639e-014 -7.39479e-014
rhumerus -24.8635 -2.34707 -89.5464
rradius 20.1803
rwrist 32.9658
rhand -24.9238 -345.768
rfingers 7.12502
rthumb 1.58517 -375.742
lclavicle 2.22639e-014 -7.39479e-014
lhumerus -383.05 -2.39989 -280.959
lradius 40.0258
lwrist -10.804
lhand -16.3224 349.209
lfingers 7.12502
lthumb 9.88915 378.957
rfemur 160.537 -176.463 195.087
rtibia 68.3404
rfoot 33.3123 0.134973
rtoes 8.82006
lfemur -21.2042 -1.16061 -7.71209
ltibia 72.2711
lfoot 24.3845 4.8356
ltoes 5.33079
